<svg xmlns="http://www.w3.org/2000/svg" enable-background="new 0 0 32 32" viewBox="0 0 32 32" id="processor"><path d="M20,11h-8c-0.55,0-1,0.45-1,1v8c0,0.55,0.45,1,1,1h8c0.55,0,1-0.45,1-1v-8C21,11.45,20.55,11,20,11z M19,19h-6v-6h6V19z"></path><path d="M29,19h-3v-6h3c0.55,0,1-0.45,1-1s-0.45-1-1-1h-3V9c0-1.65-1.35-3-3-3h-2V3c0-0.55-0.45-1-1-1s-1,0.45-1,1v3h-6V3
			c0-0.55-0.45-1-1-1s-1,0.45-1,1v3H9C7.35,6,6,7.35,6,9v2H3c-0.55,0-1,0.45-1,1s0.45,1,1,1h3v6H3c-0.55,0-1,0.45-1,1s0.45,1,1,1h3
			v2c0,1.65,1.35,3,3,3h2v3c0,0.55,0.45,1,1,1s1-0.45,1-1v-3h6v3c0,0.55,0.45,1,1,1s1-0.45,1-1v-3h2c1.65,0,3-1.35,3-3v-2h3
			c0.55,0,1-0.45,1-1S29.55,19,29,19z M24,23c0,0.55-0.45,1-1,1H9c-0.55,0-1-0.45-1-1V9c0-0.55,0.45-1,1-1h14c0.55,0,1,0.45,1,1V23z
			"></path></svg>